<svg preserveAspectRatio="none" overflow="visible" style="display: block;" width="16" height="16" viewBox="0 0 16 16" fill="none" xmlns="http://www.w3.org/2000/svg">
<g id="akar-icons:linkedin-v2-fill">
<path id="Vector" fill-rule="evenodd" clip-rule="evenodd" d="M6.286 5.97933H8.762V7.21267C9.11867 6.50333 10.0333 5.866 11.4073 5.866C14.0413 5.866 14.6667 7.278 14.6667 9.86867V14.6667H12V10.4587C12 8.98333 11.6433 8.15133 10.7353 8.15133C9.476 8.15133 8.95267 9.048 8.95267 10.458V14.6667H6.286V5.97933ZM1.71333 14.5533H4.38V5.866H1.71333V14.5533ZM4.762 3.03333C4.7621 3.25685 4.71777 3.47816 4.63159 3.68439C4.54541 3.89063 4.4191 4.07768 4.26 4.23467C4.10043 4.39341 3.91114 4.51916 3.70295 4.60472C3.49476 4.69028 3.27175 4.73399 3.04667 4.73333C2.59307 4.73231 2.15794 4.55352 1.83467 4.23533C1.6762 4.07776 1.55035 3.8905 1.46433 3.68425C1.37831 3.47799 1.33379 3.25681 1.33333 3.03333C1.33333 2.582 1.51333 2.15 1.83533 1.83133C2.1578 1.51192 2.59345 1.33292 3.04733 1.33333C3.502 1.33333 3.938 1.51267 4.26 1.83133C4.582 2.15 4.762 2.582 4.762 3.03333Z" fill="black" fill-opacity="0.4"/>
</g>
</svg>
